<?xml version="1.0" encoding="UTF-8" standalone="no"?>
<svg
   xmlns:dc="http://purl.org/dc/elements/1.1/"
   xmlns:cc="http://creativecommons.org/ns#"
   xmlns:rdf="http://www.w3.org/1999/02/22-rdf-syntax-ns#"
   xmlns:svg="http://www.w3.org/2000/svg"
   xmlns="http://www.w3.org/2000/svg"
   xmlns:sodipodi="http://sodipodi.sourceforge.net/DTD/sodipodi-0.dtd"
   xmlns:inkscape="http://www.inkscape.org/namespaces/inkscape"
   viewBox="0 0 638.77283 604.18574"
   id="svg4184"
   version="1.1"
   inkscape:version="0.91 r13725"
   sodipodi:docname="silhouette-man.svg"
   width="638.77283"
   height="604.18573">
  <metadata
     id="metadata4192">
    <rdf:RDF>
      <cc:Work
         rdf:about="">
        <dc:format>image/svg+xml</dc:format>
        <dc:type
           rdf:resource="http://purl.org/dc/dcmitype/StillImage" />
        <dc:title></dc:title>
      </cc:Work>
    </rdf:RDF>
  </metadata>
  <defs
     id="defs4190" />
  <sodipodi:namedview
     pagecolor="#ffffff"
     bordercolor="#666666"
     borderopacity="1"
     objecttolerance="10"
     gridtolerance="10"
     guidetolerance="10"
     inkscape:pageopacity="0"
     inkscape:pageshadow="2"
     inkscape:window-width="1920"
     inkscape:window-height="1015"
     id="namedview4188"
     showgrid="false"
     showguides="false"
     fit-margin-top="0"
     fit-margin-left="0"
     fit-margin-right="0"
     fit-margin-bottom="0"
     inkscape:zoom="0.77919942"
     inkscape:cx="325.61867"
     inkscape:cy="261.30977"
     inkscape:window-x="0"
     inkscape:window-y="0"
     inkscape:window-maximized="1"
     inkscape:current-layer="svg4184" />
  <path
     d="m 0,594.74151 c 0,-10.65233 17.73867,-102.20278 20.7452,-107.06747 1.07119,-1.73319 3.73195,-12.96 5.91277,-24.94842 5.08729,-27.96541 14.46658,-58.01312 19.98742,-64.0321 2.37335,-2.5875 23.67088,-8.73809 47.32788,-13.66801 72.6747,-15.1448 104.70521,-26.81041 120.51899,-43.89332 7.5375,-8.14245 18.93736,-16.62864 25.33303,-18.85817 10.16136,-3.54227 11.62846,-5.79601 11.62846,-17.86365 0,-7.59548 -2.32163,-17.14123 -5.15916,-21.21283 -2.83753,-4.0716 -6.40753,-15.00282 -7.93336,-24.29159 -1.52583,-9.28877 -5.95968,-19.91 -9.85301,-23.60269 -3.89333,-3.69269 -7.0788,-8.4055 -7.0788,-10.47286 0,-2.06736 -3.79995,-8.89843 -8.44434,-15.18015 -7.20303,-9.74245 -8.51348,-16.47837 -8.91475,-45.8228 C 203.2951,107.13431 208.15495,81.19171 224.03122,57.2731 246.44839,23.50019 289.73946,0.10857 330.02573,7.1000071e-4 345.76749,-0.04139 352.38158,1.78371 358.99185,7.99371 c 4.99166,4.68943 16.72254,9.33697 28.1119,11.13738 22.65992,3.58205 43.03946,17.97219 52.9345,37.37747 4.97466,9.75588 6.5634,22.12062 6.56783,51.11597 0.003,21.44308 1.65475,39.26627 3.75885,40.5667 10.20546,6.30733 0.68497,49.88618 -15.32524,70.14945 -6.02033,7.61961 -10.98313,16.90838 -11.02846,20.64172 -0.0453,3.73334 -3.42308,14.15002 -7.50608,23.14816 -13.56027,29.88415 -8.89404,59.46101 10.42549,66.08149 3.60007,1.2337 12.45665,9.8437 19.68125,19.1333 7.2246,9.2896 17.35782,17.8447 22.51825,19.01118 5.16043,1.16648 28.30281,9.55584 51.42747,18.64297 23.12466,9.08713 43.17199,16.52201 44.54962,16.52201 1.37763,0 9.82073,4.64439 18.7625,10.32087 15.97955,10.14424 24.12293,23.6851 24.12293,40.11167 0,4.41598 3.49236,14.71939 7.76077,22.89648 6.86908,13.15914 11.54447,38.39485 21.00675,113.38478 l 2.01264,15.95043 -319.38643,0 -319.38638,0 0,-9.44423 z"
     id="path4186"
     inkscape:connector-curvature="0" />
</svg>
